PathFileType	4	(X/Y/Z)	Patient4_TMGait_0pt2_01_left_05.trc.trc
DataRate	CameraRate	NumFrames	NumMarkers	Units	OrigDataRate	OrigDataStartFrame	OrigNumFrames
42.813455657492	42.813455657492	4	33	mm	42.813455657492	53	       141
Frame#	Time	Sacral			L.Shoulder			Chest			R.Shoulder			Neck			R.ASIS			L.ASIS			R.Thigh.Superior			R.Thigh.Lateral			R.Thigh.Inferior			R.Patella			L.Thigh.Superior			L.Thigh.Lateral			L.Thigh.Inferior			L.Patella			L.Shank.Superior			L.Shank.Lateral			L.Shank.Inferior			R.Shank.Superior			R.Shank.Lateral			R.Shank.Inferior			R.Heel			R.Midfoot.Superior			R.Midfoot.Lateral			R.Toe			L.Heel			L.Midfoot.Lateral			L.Midfoot.Superior			L.Toe			L.Elbow			L.Wrist			R.Elbow			R.Wrist			
		X1	Y1	Z1	X2	Y2	Z2	X3	Y3	Z3	X4	Y4	Z4	X5	Y5	Z5	X6	Y6	Z6	X7	Y7	Z7	X8	Y8	Z8	X9	Y9	Z9	X10	Y10	Z10	X11	Y11	Z11	X12	Y12	Z12	X13	Y13	Z13	X14	Y14	Z14	X15	Y15	Z15	X16	Y16	Z16	X17	Y17	Z17	X18	Y18	Z18	X19	Y19	Z19	X20	Y20	Z20	X21	Y21	Z21	X22	Y22	Z22	X23	Y23	Z23	X24	Y24	Z24	X25	Y25	Z25	X26	Y26	Z26	X27	Y27	Z27	X28	Y28	Z28	X29	Y29	Z29	X30	Y30	Z30	X31	Y31	Z31	X32	Y32	Z32	X33	Y33	Z33	

53	11.544571428571	797.026499954334	991.669904903364	426.331881174496	944.427914119428	1431.537295132256	247.515283541201	1049.713176988186	1369.670376314108	409.479284950300	960.680044704967	1433.186412705783	583.903227843456	924.441447022241	1490.700655966339	406.491332492097	1028.390434491736	941.234933925565	546.669994412640	1019.597785941490	964.250967039161	272.919008584756	1089.113119007977	744.281927630070	527.291532827304	1024.846396354611	632.957862343743	599.476243901660	1108.327032565954	577.718955321842	523.565462650361	1107.290054728141	467.240661875630	551.942727358900	1083.078412136062	753.559575737760	320.475980681491	1011.643763319421	624.217823534124	260.958516747338	1092.718995680620	557.508211381884	337.863910941210	1096.123110660604	486.015864968516	350.609769185676	1065.334849047323	410.544252035862	343.384619575340	976.494454344019	298.544927501732	286.815491676229	1010.261316005762	189.006732844165	368.198143979704	1025.176446062783	401.844725669719	564.565016955548	899.610797198266	375.132792457938	623.239548319770	881.163953987512	261.971791005165	585.352971038273	680.390992165594	220.152584735639	549.475019251883	832.750584106461	138.936477835811	614.129445494204	722.989156789737	162.587696753266	634.558890511672	874.530696950142	30.473269410821	659.298326270557	870.794602712852	38.090938092047	399.622594807270	950.430358136497	35.804178802042	324.279443541239	1031.267996684451	96.577066730488	357.859773313024	1161.167221979969	47.086240033255	338.135164745870	1009.300476492438	1089.832519404314	116.559771659062	1171.240365972626	886.719382694934	154.497547449386	984.750063303802	1077.698844382516	693.853444146779	1127.153657226676	863.581956099287	688.443613370670	
54	11.567928571429	796.396798345429	989.453736909707	422.100079294769	945.756092582571	1431.107951444980	247.007060524778	1048.726199129196	1368.569553165375	410.128876306490	956.780086474182	1430.440364115458	583.726360175882	923.343187070294	1489.220650711178	406.207482078553	1026.903999822855	940.256137233623	544.852801744362	1021.045985413663	963.094027450129	271.054701928362	1093.476379911672	746.598891307343	524.269961769593	1033.182799834307	633.784625957481	596.368401834911	1118.078183457522	580.773938974050	519.804817175005	1119.622772172166	469.440281666304	548.531667194755	1085.030897683490	752.472837834665	319.456790390434	1014.440468973384	622.530300347009	260.188617383140	1095.174649288031	556.329785432999	337.967123314624	1098.784273385280	484.459457133222	350.986139405027	1066.530188120337	408.677901101285	343.841126824787	976.379371979746	297.902046051182	286.932835603262	1007.713538067246	187.933637614490	368.548754512305	1036.819067668739	403.750692130188	561.216734270804	909.785584582822	378.522783652980	618.254844050238	891.242752127173	264.923328686833	581.548502193564	690.660473436950	224.380101977878	542.589623585586	841.650089315119	142.605045491022	611.014833355603	731.290137198102	167.660599310689	629.347595478042	881.371266749435	31.474432624646	659.166403757650	866.193426925409	38.135402298805	399.590865402253	945.867539621665	35.857351020252	324.287096260289	1026.880940505808	96.404646270829	358.104233060733	1156.699478019695	46.547340889401	338.203835963380	1019.673785329021	1093.009458672970	112.689160841420	1194.125501383273	900.402270732494	151.879273164386	964.007722967090	1074.327286253640	692.560693055339	1084.377554069241	845.485499416071	692.927209112372	
55	11.591285714286	795.692301791095	987.695035686775	418.119779168639	947.463078828157	1430.854403371956	246.718512481788	1047.879438887831	1367.673653481251	411.096969445795	952.899281900883	1428.192571543833	583.618914953024	922.462258011864	1488.047481732355	406.008012387576	1025.098134523345	939.517337471876	543.550516173759	1022.336196635591	962.128880303386	269.760866930929	1097.086519930352	749.267150636884	521.637948066791	1040.555481222050	635.004881436492	593.518686115525	1126.735852385036	584.267413879789	516.359017488650	1131.003014401354	472.343907516937	545.248534369523	1086.464580410764	751.401439002315	318.772535944354	1016.401551261392	621.094946346469	259.633950409483	1096.616285951754	555.218657018546	338.262159836192	1100.283896120079	483.081694351113	351.519651992749	1066.767213906061	407.067020676254	344.342217250329	975.548102793359	297.348236069485	287.080871194566	1004.825668583654	187.023178960873	368.876191549749	1048.109350652885	405.938946446648	558.014497278397	920.057899898362	380.895804596280	613.552652756984	902.417074038693	266.833240589357	577.805549974955	702.331339229422	224.742277175743	536.262459634716	853.181413406916	145.409910768941	607.852391141026	742.197581930327	169.866243126817	624.522274544147	892.910933560244	33.055479873220	658.804104242923	861.561553886219	38.164993090951	399.553710447730	941.280669554837	35.899270392194	324.281967261444	1022.442606245116	96.265605736369	358.302743368470	1152.191829986003	46.098390129531	338.256965112934	1030.289666194763	1096.780672965497	108.988633146740	1216.477153470800	915.304274640741	149.318963972806	943.071937960540	1072.618794467238	691.431539140226	1041.663293175002	832.135794119400	696.395731416978	
56	11.614642857143	794.918341844896	986.547898353455	414.391240430272	949.586292541981	1430.888230107711	246.641709007488	1047.185108755207	1367.112190737787	412.382660413225	949.055290129704	1426.616825274058	583.556311483202	921.820594747325	1487.310871400435	405.863827007465	1022.960070652527	939.146430313724	542.786933438172	1023.479918886764	961.477914139742	269.073105996617	1099.798571822134	752.279316381515	519.470829349281	1046.713701799543	636.638776576975	591.021419869086	1134.008793498633	588.140702490910	513.342649057033	1141.120760912281	475.964018525372	542.239723625738	1087.265042027338	750.397011365686	318.463708355450	1017.362163094083	620.011964799806	259.273739464763	1096.817501071505	554.221366790922	338.725825230090	1100.356830080915	481.942003914985	352.170357354568	1065.838603610213	405.798414915883	344.842218402363	973.851596286874	296.916492636456	287.225408402345	1001.513210364536	186.322319243968	369.162299298738	1058.857393528167	408.397548154625	555.130132688501	930.419545181758	382.061578384929	609.462302377841	914.804074314943	267.554707463841	574.405240383077	715.690785397592	220.959566185879	531.008298084100	867.631506582605	147.078507692269	604.882681537145	756.092706536433	168.825035071384	620.468613718382	909.573282332638	35.115588613613	658.185490294059	856.891882979479	38.177202308396	399.512387790918	936.662237776047	35.927729364009	324.264899854387	1017.940520845722	96.163878728031	358.448430644561	1147.633832920360	45.754676247914	338.296849667092	1041.138770325860	1101.195033920539	105.563626458739	1238.137297733724	931.328073508965	146.886370259758	922.083673832451	1072.672797430213	690.371578560491	999.922852429077	823.494277617265	698.756217100305	
